<svg width="24" height="24" viewBox="0 0 24 24" fill="none" xmlns="http://www.w3.org/2000/svg">
<path d="M22.125 20.625C22.7344 20.625 23.25 21.1406 23.25 21.75V22.5C23.25 22.7344 23.0625 22.875 22.875 22.875H1.125C0.890625 22.875 0.75 22.7344 0.75 22.5V21.75C0.75 21.1406 1.21875 20.625 1.875 20.625H2.25V18C2.25 17.3906 2.71875 16.875 3.375 16.875H4.125V9.75H6.375V16.875H8.625V9.75H10.875V16.875H13.125V9.75H15.375V16.875H17.625V9.75H19.875V16.875H20.625C21.2344 16.875 21.75 17.3906 21.75 18V20.625H22.125ZM19.5 20.625V19.125H4.5V20.625H19.5ZM22.875 5.53125C23.0625 5.57812 23.25 5.8125 23.25 6.04688V7.3125C23.25 7.64062 22.9688 7.875 22.6875 7.875H21.75V8.4375C21.75 8.76562 21.4688 9 21.1875 9H2.8125C2.48438 9 2.25 8.76562 2.25 8.4375V7.875H1.3125C0.984375 7.875 0.75 7.64062 0.75 7.3125V6.04688C0.75 5.8125 0.890625 5.57812 1.07812 5.53125L11.25 1.26562C11.4844 1.17188 11.7188 1.17188 12 1.17188C12.2344 1.17188 12.4688 1.17188 12.7031 1.26562L22.875 5.53125ZM3 6.75H21L12 3.375L3 6.75Z" fill="#020F1C"/>
</svg>
