<svg id="Layer_1" data-name="Layer 1" xmlns="http://www.w3.org/2000/svg" viewBox="0 0 293.4 48"><defs><style>.cls-1,.cls-7{fill:#fff;}.cls-1,.cls-6{stroke:#d9d9d9;}.cls-2{fill:#172b85;}.cls-10,.cls-2,.cls-3,.cls-4,.cls-5,.cls-7,.cls-9{fill-rule:evenodd;}.cls-3{fill:#ed0006;}.cls-4{fill:#f9a000;}.cls-5{fill:#ff5e00;}.cls-6{fill:#1f72cd;}.cls-10,.cls-8{fill:#fd6020;}</style></defs><title>Cards</title><rect class="cls-1" x="0.5" y="0.5" width="68.6" height="47" rx="5.5"/><path class="cls-2" d="M21.13,32.52H16.91L13.75,20.38a2,2,0,0,0-.94-1.28A13.7,13.7,0,0,0,9,17.82v-.47h6.79a1.77,1.77,0,0,1,1.76,1.52l1.64,8.75,4.21-10.27h4.1Zm8.67,0h-4l3.28-15.17h4Zm8.43-11a1.53,1.53,0,0,1,1.64-1.28,7.26,7.26,0,0,1,3.86.7l.71-3.27a10,10,0,0,0-3.63-.7c-3.87,0-6.68,2.1-6.68,5,0,2.21,2,3.38,3.4,4.08s2.1,1.17,2,1.87c0,1.05-1.18,1.51-2.35,1.51a10,10,0,0,1-4.09-.93l-.71,3.27a11.5,11.5,0,0,0,4.34.81c4.33.12,7-2,7-5.13C43.73,23.53,38.23,23.3,38.23,21.55Zm19.44,11L54.51,17.35h-3.4a1.76,1.76,0,0,0-1.64,1.17l-5.85,14h4.09l.82-2.22h5L54,32.52Zm-6-11.09,1.17,5.72H49.59Z"/><rect class="cls-1" x="75.1" y="0.5" width="68.6" height="47" rx="5.5"/><path class="cls-3" d="M109.9,34.31a13.38,13.38,0,0,1-8.8,3.3,13.68,13.68,0,0,1-13.57-13.8A13.69,13.69,0,0,1,101.1,10a13.38,13.38,0,0,1,8.8,3.3,13.36,13.36,0,0,1,8.8-3.3,13.81,13.81,0,0,1,0,27.61A13.36,13.36,0,0,1,109.9,34.31Z"/><path class="cls-4" d="M109.9,34.31a14,14,0,0,0,0-21,13.36,13.36,0,0,1,8.8-3.3,13.81,13.81,0,0,1,0,27.61A13.36,13.36,0,0,1,109.9,34.31Z"/><path class="cls-5" d="M109.9,13.3a14,14,0,0,1,0,21,14,14,0,0,1,0-21Z"/><rect class="cls-6" x="149.7" y="0.5" width="68.6" height="47" rx="5.5"/><path class="cls-7" d="M161.68,17l-6.51,14.49H163l1-2.31h2.21l1,2.31h8.58V29.73l.77,1.76h4.44l.76-1.8v1.8H199.5l2.17-2.25,2,2.25,9.17,0-6.54-7.22L212.87,17h-9l-2.11,2.21-2-2.21H180.35l-1.67,3.74L177,17H169.2v1.7l-.87-1.7Zm26.65,2.06h10.24l3.14,3.4,3.23-3.4h3.14l-4.76,5.23,4.76,5.16H204.8L201.67,26l-3.25,3.44H188.33Zm2.53,4.05v-1.9h6.39l2.79,3-2.91,3.05h-6.27V25.23h5.59V23.11Zm-27.67-4.05H167l4.32,9.83V19.06h4.16l3.33,7,3.08-7H186v10.4H183.5l0-8.15-3.67,8.15h-2.26l-3.69-8.15v8.15h-5.19l-1-2.33h-5.31l-1,2.33h-2.78Zm.09,5.91L165,20.82,166.78,25Z"/><rect class="cls-1" x="224.3" y="0.5" width="68.6" height="47" rx="5.5"/><path class="cls-8" d="M253.1,47l39.27-11.5V42a5,5,0,0,1-5,5Z"/><path class="cls-9" d="M284.92,19.22c2.16,0,3.35,1,3.35,2.8a2.62,2.62,0,0,1-2.16,2.79l2.92,4h-2.27l-2.49-3.87h-.21v3.87h-1.84V19.22Zm-.86,4.41h.54c1.18,0,1.72-.54,1.72-1.51s-.54-1.39-1.72-1.39h-.54Zm-8.22,5.16H281V27.17h-3.35V24.59h3.24V23h-3.24V20.83H281V19.22h-5.19Zm-5.4-3.12L268,19.22H266L270,29h1l4-9.78H273Zm-21.93-1.61A4.92,4.92,0,0,0,253.37,29a5.8,5.8,0,0,0,2.38-.54V26.31a2.82,2.82,0,0,1-2.16,1.08,3,3,0,0,1-3.13-3v-.22a3.22,3.22,0,0,1,3-3.33,3,3,0,0,1,2.27,1.08V19.76a4.17,4.17,0,0,0-2.27-.54A4.67,4.67,0,0,0,248.51,24.06Zm-3.35-1.18c-1.08-.43-1.4-.65-1.4-1.19a1.19,1.19,0,0,1,1.29-1.07,2.26,2.26,0,0,1,1.52.75l1-1.29a4.31,4.31,0,0,0-2.7-1.07,2.77,2.77,0,0,0-2.92,2.58v.1c0,1.29.54,2,2.27,2.58a6.77,6.77,0,0,1,1.3.54,1.13,1.13,0,0,1,.54,1,1.41,1.41,0,0,1-1.3,1.39h-.11a2.12,2.12,0,0,1-1.94-1.29l-1.19,1.19a3.67,3.67,0,0,0,3.24,1.82A3,3,0,0,0,248,26v-.32C247.86,24.38,247.32,23.73,245.16,22.88Zm-6.26,5.91h1.83V19.22H238.9Zm-8.54-9.57h3.24a4.69,4.69,0,0,1,4.54,4.84,4.76,4.76,0,0,1-5.08,4.73h-2.7Zm2.38,8a3.39,3.39,0,0,0,2.48-.75,3.38,3.38,0,0,0,1-2.47,3.31,3.31,0,0,0-1-2.36,3.44,3.44,0,0,0-2.48-.76h-.54v6.34Z"/><path class="cls-10" d="M261.26,19a4.94,4.94,0,0,0-5,4.94,5.1,5.1,0,0,0,5,5,5,5,0,0,0,5.08-4.94A5.13,5.13,0,0,0,261.26,19Z"/></svg>