<svg viewBox="0 0 109 33" fill="currentColor" role="img" xmlns="http://www.w3.org/2000/svg"><g fill="currentColor"><path d="M95.075 26.277H100l-6.575-9.974L100 6.33h-4.938l-4.106 6.225-4.107-6.225h-4.938l6.576 9.973-6.576 9.974h4.938l4.107-6.239 4.119 6.239ZM79.719 6.342h-4.12v19.922h4.12V6.342ZM52.27 6.342h-4.119v19.947h4.12V6.342ZM63.885 10.467a4.284 4.284 0 0 1 4.283 4.276v11.559H72.3V14.743c0-4.64-3.779-8.401-8.415-8.401-4.648 0-8.414 3.773-8.414 8.401v11.559h4.132V14.743a4.284 4.284 0 0 1 4.282-4.276ZM44.902 14.73H36.31v-.616a3.658 3.658 0 0 1 3.665-3.66h4.913V6.342h-4.913c-4.308 0-7.785 3.484-7.785 7.772v12.162h4.12v-7.433h8.59v-4.112ZM18.575 5.449l-6.677 6.666a3.204 3.204 0 0 1-4.522 0 3.192 3.192 0 0 1 0-4.515L14.052.934a3.204 3.204 0 0 1 4.523 0c1.247 1.232 1.247 3.27 0 4.515ZM18.512 18.617l-6.488 6.477a3.204 3.204 0 0 1-4.522 0 3.192 3.192 0 0 1 0-4.515l6.487-6.477a3.204 3.204 0 0 1 4.523 0 3.192 3.192 0 0 1 0 4.515ZM5.46 18.526c1.259-1.258 1.27-3.284.026-4.527-1.244-1.243-3.274-1.23-4.534.027-1.259 1.257-1.27 3.284-.026 4.526 1.244 1.243 3.274 1.231 4.533-.026ZM18.608 31.66c1.26-1.257 1.272-3.283.027-4.526-1.245-1.243-3.274-1.23-4.534.027-1.259 1.257-1.27 3.284-.026 4.526 1.244 1.243 3.274 1.23 4.533-.026Z"></path></g></svg>
